<svg xmlns="http://www.w3.org/2000/svg" viewBox="0 0 960 400" width="960" height="400"
     role="img" aria-label="Mixed waste enters on a single stream. Material is classified in
     motion. Recoverable items are separated into a recovery volume; everything else continues
     out as residual.">
  <title>MatterFlow — one stream in, two streams out</title>
  <g stroke-linecap="square">
    <line x1="300" y1="34" x2="300" y2="366" stroke="rgba(148,163,184,.22)" stroke-width="1" stroke-dasharray="2 7"/><line x1="620" y1="34" x2="620" y2="366" stroke="rgba(148,163,184,.22)" stroke-width="1" stroke-dasharray="2 7"/><text x="70" y="52" font-family="JetBrains Mono, monospace" font-size="11" letter-spacing="2.4" fill="#00E599">01</text><text x="100" y="52" font-family="JetBrains Mono, monospace" font-size="11" letter-spacing="2.4" fill="rgba(148,163,184,.55)">INTAKE</text><text x="348" y="52" font-family="JetBrains Mono, monospace" font-size="11" letter-spacing="2.4" fill="#00E599">02</text><text x="378" y="52" font-family="JetBrains Mono, monospace" font-size="11" letter-spacing="2.4" fill="rgba(148,163,184,.55)">DETECTION</text><text x="668" y="52" font-family="JetBrains Mono, monospace" font-size="11" letter-spacing="2.4" fill="#00E599">03</text><text x="698" y="52" font-family="JetBrains Mono, monospace" font-size="11" letter-spacing="2.4" fill="rgba(148,163,184,.55)">RECOVERY</text><line x1="40" y1="150" x2="900" y2="150" stroke="rgba(0,229,153,.38)" stroke-width="1.5"/><line x1="40" y1="184" x2="620" y2="184" stroke="rgba(148,163,184,.22)" stroke-width="1"/><path d="M40 167 h44" stroke="rgba(148,163,184,.55)" stroke-width="1.4" stroke-dasharray="3 5"/><path d="M84 161 l10 6 l-10 6 z" fill="rgba(148,163,184,.55)"/><rect x="120" y="158" width="17" height="17" fill="none" stroke="#00E599" stroke-width="1.6"/><rect x="168" y="158" width="17" height="17" fill="none" stroke="#475569" stroke-width="1.6"/><rect x="212" y="158" width="17" height="17" fill="none" stroke="#00E599" stroke-width="1.6"/><rect x="258" y="158" width="17" height="17" fill="none" stroke="#475569" stroke-width="1.6"/><rect x="330" y="158" width="17" height="17" fill="none" stroke="#00E599" stroke-width="1.6"/><rect x="382" y="158" width="17" height="17" fill="none" stroke="#475569" stroke-width="1.6"/><rect x="430" y="158" width="17" height="17" fill="none" stroke="#00E599" stroke-width="1.6"/><rect x="486" y="158" width="17" height="17" fill="none" stroke="#00E599" stroke-width="1.6"/><rect x="540" y="158" width="17" height="17" fill="none" stroke="#475569" stroke-width="1.6"/><rect x="676" y="158" width="17" height="17" fill="none" stroke="#475569" stroke-width="1.6"/><rect x="742" y="158" width="17" height="17" fill="none" stroke="#475569" stroke-width="1.6"/><rect x="812" y="158" width="17" height="17" fill="none" stroke="#475569" stroke-width="1.6"/><path d="M318 96 h284" stroke="#00E599" stroke-width="1.6"/><path d="M318 96 v14 M602 96 v14" stroke="#00E599" stroke-width="1.6"/><path d="M330 100 L318 152 M590 100 L602 152" stroke="rgba(0,229,153,.38)" stroke-width="1" stroke-dasharray="3 4"/><text x="460" y="86" text-anchor="middle" font-family="JetBrains Mono, monospace" font-size="10" letter-spacing="2.2" fill="#00E599">CLASSIFIED IN MOTION</text><rect x="335" y="136" width="7" height="7" fill="#00E599"/><rect x="387" y="136" width="7" height="7" fill="#475569"/><rect x="435" y="136" width="7" height="7" fill="#00E599"/><rect x="491" y="136" width="7" height="7" fill="#00E599"/><rect x="545" y="136" width="7" height="7" fill="#475569"/><path d="M604 167 q28 0 40 44 t40 44" fill="none" stroke="#00E599" stroke-width="1.6" stroke-dasharray="4 5"/><path d="M676 249 h44" stroke="#00E599" stroke-width="1.6" stroke-dasharray="4 5"/><path d="M860 167 h48" stroke="rgba(148,163,184,.55)" stroke-width="1.4" stroke-dasharray="3 5"/><path d="M908 161 l10 6 l-10 6 z" fill="rgba(148,163,184,.55)"/><text x="908" y="144" text-anchor="end" font-family="Inter, sans-serif" font-size="13" fill="#94A3B8">Residual continues</text><rect x="726" y="220" width="172" height="128" fill="rgba(0,229,153,.07)" stroke="#00E599" stroke-width="1.6"/><rect x="748" y="304" width="15" height="15" fill="none" stroke="#00E599" stroke-width="1.5" opacity="0.85"/><rect x="782" y="312" width="15" height="15" fill="none" stroke="#00E599" stroke-width="1.5" opacity="0.85"/><rect x="818" y="302" width="15" height="15" fill="none" stroke="#00E599" stroke-width="1.5" opacity="0.85"/><rect x="852" y="314" width="15" height="15" fill="none" stroke="#00E599" stroke-width="1.5" opacity="0.85"/><rect x="764" y="276" width="15" height="15" fill="none" stroke="#00E599" stroke-width="1.5" opacity="0.85"/><rect x="802" y="280" width="15" height="15" fill="none" stroke="#00E599" stroke-width="1.5" opacity="0.85"/><rect x="840" y="274" width="15" height="15" fill="none" stroke="#00E599" stroke-width="1.5" opacity="0.85"/><text x="726" y="206" font-family="Inter, sans-serif" font-size="13" fill="#DCE6F2">Recovered</text><text x="40" y="144" font-family="Inter, sans-serif" font-size="13" fill="#DCE6F2">Mixed waste in</text>
  </g>
</svg>
